<?xml version="1.0" encoding="UTF-8" standalone="no"?>
<!-- Generator: Adobe Illustrator 16.0.0, SVG Export Plug-In . SVG Version: 6.00 Build 0)  -->

<svg
   xmlns:dc="http://purl.org/dc/elements/1.1/"
   xmlns:cc="http://creativecommons.org/ns#"
   xmlns:rdf="http://www.w3.org/1999/02/22-rdf-syntax-ns#"
   xmlns:svg="http://www.w3.org/2000/svg"
   xmlns="http://www.w3.org/2000/svg"
   xmlns:sodipodi="http://sodipodi.sourceforge.net/DTD/sodipodi-0.dtd"
   xmlns:inkscape="http://www.inkscape.org/namespaces/inkscape"
   version="1.1"
   id="Capa_1"
   x="0px"
   y="0px"
   width="42mm"
   height="42mm"
   viewBox="0 0 158.74015 158.74015"
   xml:space="preserve"
   sodipodi:docname="puzzle_heart_2.svg"
   inkscape:version="0.92.3 (2405546, 2018-03-11)"><metadata
   id="metadata4644"><rdf:RDF><cc:Work
       rdf:about=""><dc:format>image/svg+xml</dc:format><dc:type
         rdf:resource="http://purl.org/dc/dcmitype/StillImage" /><dc:title></dc:title></cc:Work></rdf:RDF></metadata><defs
   id="defs4642" /><sodipodi:namedview
   pagecolor="#ffffff"
   bordercolor="#666666"
   borderopacity="1"
   objecttolerance="10"
   gridtolerance="10"
   guidetolerance="10"
   inkscape:pageopacity="0"
   inkscape:pageshadow="2"
   inkscape:window-width="1920"
   inkscape:window-height="1018"
   id="namedview4640"
   showgrid="true"
   fit-margin-top="1"
   fit-margin-left="1"
   fit-margin-bottom="1"
   fit-margin-right="1"
   inkscape:zoom="2.4076682"
   inkscape:cx="49.08542"
   inkscape:cy="126.75119"
   inkscape:window-x="-8"
   inkscape:window-y="-8"
   inkscape:window-maximized="1"
   inkscape:current-layer="layer1"
   inkscape:snap-others="true"
   inkscape:snap-grids="false"
   inkscape:object-paths="true"
   inkscape:snap-intersection-paths="true"
   inkscape:snap-smooth-nodes="true"
   units="mm"><inkscape:grid
     type="xygrid"
     id="grid4650"
     originx="-0.52016365"
     originy="-4.8511152" /></sodipodi:namedview>
<g
   id="g4607"
   style="fill:none;stroke:#fc0000;stroke-width:0.37795275;stroke-miterlimit:4;stroke-dasharray:none;stroke-opacity:1"
   transform="translate(7.6688123,-10.629261)">
	<g
   id="g4605"
   style="fill:none;stroke:#fc0000;stroke-width:0.37795275;stroke-miterlimit:4;stroke-dasharray:none;stroke-opacity:1">
		
	</g>
</g>
<g
   id="g4609"
   transform="translate(9.6688123,-10.629261)">
</g>
<g
   id="g4611"
   transform="translate(9.6688123,-10.629261)">
</g>
<g
   id="g4613"
   transform="translate(9.6688123,-10.629261)">
</g>
<g
   id="g4615"
   transform="translate(9.6688123,-10.629261)">
</g>
<g
   id="g4617"
   transform="translate(9.6688123,-10.629261)">
</g>
<g
   id="g4619"
   transform="translate(9.6688123,-10.629261)">
</g>
<g
   id="g4621"
   transform="translate(9.6688123,-10.629261)">
</g>
<g
   id="g4623"
   transform="translate(9.6688123,-10.629261)">
</g>
<g
   id="g4625"
   transform="translate(9.6688123,-10.629261)">
</g>
<g
   id="g4627"
   transform="translate(9.6688123,-10.629261)">
</g>
<g
   id="g4629"
   transform="translate(9.6688123,-10.629261)">
</g>
<g
   id="g4631"
   transform="translate(9.6688123,-10.629261)">
</g>
<g
   id="g4633"
   transform="translate(9.6688123,-10.629261)">
</g>
<g
   id="g4635"
   transform="translate(9.6688123,-10.629261)">
</g>
<g
   id="g4637"
   transform="translate(9.6688123,-10.629261)">
</g>
<g
   inkscape:groupmode="layer"
   id="layer2"
   inkscape:label="gravure"
   style="display:inline"
   transform="translate(-0.5201637,-8.7042366)"><path
   id="path843"
   style="fill:none;stroke:#090000;stroke-width:3.17647028;stroke-linecap:butt;stroke-linejoin:miter;stroke-miterlimit:4;stroke-dasharray:none;stroke-opacity:1"
   d="m 9.8521853,85.310119 c 6.6953107,-2.85072 13.1067977,-4.843178 23.7810777,-5.611893 10.67428,-0.768714 2.649133,6.507417 2.68085,11.281054 0.03172,4.77363 4.077645,8.58363 10.879436,8.5583 7.481397,-0.0233 10.643322,-3.4827 10.676263,-8.31147 0.03294,-4.828777 -9.238581,-12.470235 0.104136,-11.487996 9.342716,0.982238 16.40242,2.460278 23.022691,5.377134"
   inkscape:connector-curvature="0"
   sodipodi:nodetypes="czzczzc" /><path
   id="path843-3"
   style="fill:none;stroke:#000000;stroke-width:3.17647028;stroke-linecap:butt;stroke-linejoin:miter;stroke-miterlimit:4;stroke-dasharray:none;stroke-opacity:1"
   d="m 80.95143,85.095354 c 6.695308,2.850718 13.128549,4.933846 23.80282,5.702556 10.67429,0.76871 2.64914,-6.507414 2.68086,-11.281052 0.0317,-4.77364 4.07764,-8.583628 10.87943,-8.558297 7.4814,0.02328 10.64332,3.482695 10.67627,8.311469 0.0329,4.828778 -9.23858,12.47024 0.10413,11.488 7.99918,-0.840991 14.52234,-2.142599 20.33142,-4.302374"
   inkscape:connector-curvature="0"
   sodipodi:nodetypes="czzczsc" /><path
   id="path843-3-7-3"
   style="display:inline;fill:none;stroke:#190000;stroke-width:3.17647028;stroke-linecap:butt;stroke-linejoin:miter;stroke-miterlimit:4;stroke-dasharray:none;stroke-opacity:1"
   d="m 82.386274,109.01131 c 8.337655,-0.0625 10.868711,4.90372 10.827235,9.83223 -0.06362,7.56052 -4.355367,10.11972 -10.231346,10.15266 -5.875978,0.0329 -12.470231,-9.23858 -11.509807,0.34411 0.220498,2.68742 0.657523,5.15887 1.327485,7.65623 0.669962,2.49735 1.57309,5.02085 2.744565,7.57382 1.171476,2.55296 2.611292,5.13519 4.358147,7.74946 0,0 -64.774792,-40.67359 -71.9496376,-72.924684 -1.3304183,-4.050085 -2.064989,-8.37987 -2.064989,-12.893879 0,-15.767515 8.7294516,-29.488658 21.6150946,-36.624843 6.005791,-3.301253 12.866877,-5.19859 20.182076,-5.19859 12.9554,0 24.530781,5.894576 32.217456,15.139428 1.404799,2.316021 4.08401,7.516309 4.330568,10.325206 0.773977,8.817471 -6.142749,0.738554 -10.971529,0.771499 -4.828771,0.03295 -9.063716,4.073593 -9.445939,8.232777 -0.437203,4.757459 0.846901,11.238059 8.907364,11.228511 8.060464,-0.0096 14.552238,-4.456405 9.687724,10.295328 -4.864518,14.751737 -2.984219,9.043314 -4.560046,13.609567 -4.381495,13.40558 -3.802078,14.79372 4.535579,14.73117 z M 79.902554,39.817252 C 87.553088,30.5724 99.139577,24.677824 112.07733,24.677824 c 7.33285,0 14.20615,1.897337 20.19849,5.19859 12.88649,7.146271 21.61674,20.863211 21.61674,36.624843 0,4.508126 -0.74278,8.843794 -2.0732,12.893879 -7.18493,32.251924 -71.916806,72.924674 -71.916806,72.924674"
   inkscape:connector-curvature="0" /><text
   xml:space="preserve"
   style="font-style:normal;font-weight:normal;font-size:22.41176224px;line-height:1.25;font-family:sans-serif;letter-spacing:0px;word-spacing:0px;display:inline;fill:#000000;fill-opacity:1;stroke:none;stroke-width:0.84044111"
   x="36.598011"
   y="66.562469"
   id="text2171-7"><tspan
     sodipodi:role="line"
     id="tspan2169-1"
     x="36.598011"
     y="66.562469"
     style="font-style:normal;font-variant:normal;font-weight:normal;font-stretch:normal;font-family:Georgia;-inkscape-font-specification:Georgia;stroke-width:0.84044111">M</tspan></text>

<text
   xml:space="preserve"
   style="font-style:normal;font-weight:normal;font-size:22.41176224px;line-height:1.25;font-family:sans-serif;letter-spacing:0px;word-spacing:0px;display:inline;fill:#000000;fill-opacity:1;stroke:none;stroke-width:0.84044111"
   x="110.50595"
   y="66.575516"
   id="text2167"><tspan
     sodipodi:role="line"
     id="tspan2165"
     x="110.50595"
     y="66.575516"
     style="font-style:normal;font-variant:normal;font-weight:normal;font-stretch:normal;font-family:Georgia;-inkscape-font-specification:Georgia;stroke-width:0.84044111">P</tspan></text>

</g><g
   inkscape:groupmode="layer"
   id="layer1"
   inkscape:label="découpe"
   style="display:inline"
   transform="translate(-0.5201637,-8.7042366)"><path
   id="path843-3-7"
   style="fill:none;stroke:#ff0000;stroke-width:0.03779528;stroke-linecap:butt;stroke-linejoin:miter;stroke-miterlimit:4;stroke-dasharray:none;stroke-opacity:1"
   d="m 82.386273,109.01131 c 8.337656,-0.0625 10.868712,4.90372 10.827236,9.83223 -0.06362,7.56052 -4.355367,10.11972 -10.231346,10.15266 -5.875979,0.0329 -12.470232,-9.23858 -11.509808,0.34411 0.220498,2.68742 0.657523,5.15887 1.327485,7.65623 0.669962,2.49735 1.57309,5.02085 2.744565,7.57382 1.171476,2.55296 2.611292,5.13518 4.358147,7.74945 0,0 -64.774792,-40.67359 -71.9496375,-72.924676 -1.3304182,-4.050086 -2.0649898,-8.379868 -2.0649898,-12.893877 0,-15.767515 8.7294513,-29.488662 21.6150943,-36.624847 6.005792,-3.301253 12.866878,-5.198588 20.182077,-5.198588 12.9554,0 24.530782,5.894578 32.217456,15.13943 1.404799,2.316021 4.08401,7.516305 4.330568,10.325205 0.773978,8.817468 -6.142749,0.738548 -10.971529,0.771494 -4.828771,0.03294 -9.063716,4.073595 -9.445939,8.232783 -0.437203,4.757453 0.846901,11.238052 8.907365,11.228504 8.060463,-0.0095 14.552238,-4.4564 9.687723,10.295331 -4.864518,14.751731 -2.984219,9.043317 -4.560046,13.609561 -4.381494,13.40559 -3.802078,14.79373 4.535579,14.73118 z m -2.48372,-69.194058 c 7.650535,-9.244852 19.237024,-15.13943 32.174777,-15.13943 7.33285,0 14.20615,1.897335 20.19849,5.198588 12.88649,7.146271 21.61674,20.863215 21.61674,36.624847 0,4.508126 -0.74278,8.843791 -2.0732,12.893877 -7.18493,32.251926 -71.916807,72.924676 -71.916807,72.924676"
   inkscape:connector-curvature="0" /><text
   xml:space="preserve"
   style="font-style:normal;font-weight:normal;font-size:40px;line-height:1.25;font-family:sans-serif;letter-spacing:0px;word-spacing:0px;fill:#000000;fill-opacity:1;stroke:none"
   x="-157.82906"
   y="102.9338"
   id="text2159"><tspan
     sodipodi:role="line"
     id="tspan2157"
     x="-157.82906"
     y="139.42702" /></text>

<path
   style="display:inline;opacity:1;fill:none;fill-opacity:1;stroke:#ff0000;stroke-width:0.05204782;stroke-linecap:round;stroke-linejoin:round;stroke-miterlimit:4;stroke-dasharray:none;stroke-dashoffset:0;stroke-opacity:1"
   id="path2179-2"
   sodipodi:type="arc"
   sodipodi:cx="117.18372"
   sodipodi:cy="39.988304"
   sodipodi:rx="7.5328722"
   sodipodi:ry="7.5328722"
   sodipodi:start="3.2046689"
   sodipodi:end="3.1749633"
   sodipodi:open="true"
   d="m 109.66583,39.513474 a 7.5328722,7.5328722 0 0 1 7.93688,-7.046381 7.5328722,7.5328722 0 0 1 7.10513,7.884331 7.5328722,7.5328722 0 0 1 -7.83135,7.163484 7.5328722,7.5328722 0 0 1 -7.22144,-7.777934" /><path
   style="display:inline;opacity:1;fill:none;fill-opacity:1;stroke:#ff0000;stroke-width:0.0520481;stroke-linecap:round;stroke-linejoin:round;stroke-miterlimit:4;stroke-dasharray:none;stroke-dashoffset:0;stroke-opacity:1"
   id="path2179"
   sodipodi:type="arc"
   sodipodi:cx="46.955975"
   sodipodi:cy="39.813709"
   sodipodi:rx="7.5329132"
   sodipodi:ry="7.5329132"
   sodipodi:start="3.2046689"
   sodipodi:end="3.1749633"
   sodipodi:open="true"
   d="m 39.438042,39.338876 a 7.5329132,7.5329132 0 0 1 7.936922,-7.046419 7.5329132,7.5329132 0 0 1 7.105167,7.884375 7.5329132,7.5329132 0 0 1 -7.831392,7.163522 7.5329132,7.5329132 0 0 1 -7.221484,-7.777976" /></g></svg>